<svg xmlns="http://www.w3.org/2000/svg" width="1200" height="800" viewBox="0 0 1200 800" role="img" aria-labelledby="title desc">
  <title id="title">Model Comparison</title>
  <desc id="desc">Infographics prompt recipe visual card for analysis graphic.</desc>
  <defs>
    <linearGradient id="bg" x1="0" y1="0" x2="1" y2="1">
      <stop offset="0" stop-color="#f8fafc"/>
      <stop offset="1" stop-color="#e2e8f0"/>
    </linearGradient>
    <linearGradient id="panel" x1="0" y1="0" x2="1" y2="1">
      <stop offset="0" stop-color="#4f46e5"/>
      <stop offset="1" stop-color="#111827"/>
    </linearGradient>
    <filter id="shadow" x="-20%" y="-20%" width="140%" height="140%">
      <feDropShadow dx="0" dy="18" stdDeviation="22" flood-color="#0f172a" flood-opacity="0.18"/>
    </filter>
  </defs>
  <rect width="1200" height="800" fill="url(#bg)"/>
  <rect x="70" y="64" width="1060" height="672" rx="36" fill="#ffffff" filter="url(#shadow)"/>
  <rect x="106" y="102" width="460" height="596" rx="28" fill="url(#panel)"/>
  <circle cx="210" cy="214" r="72" fill="#ffffff" opacity="0.18"/>
  <circle cx="464" cy="604" r="112" fill="#ffffff" opacity="0.10"/>
  <path d="M176 430 C246 350, 324 516, 424 394 S520 430, 524 328" fill="none" stroke="#ffffff" stroke-width="18" stroke-linecap="round" opacity="0.28"/>
  <text x="150" y="168" font-family="Inter, Arial, sans-serif" font-size="28" font-weight="700" fill="#ffffff" opacity="0.92">AI IMAGE PROMPT ATLAS</text>
  <text x="150" y="592" font-family="Inter, Arial, sans-serif" font-size="22" font-weight="600" fill="#ffffff" opacity="0.78">Infographics</text>
  <text x="150" y="628" font-family="Inter, Arial, sans-serif" font-size="18" fill="#ffffff" opacity="0.7">GPTIMG2.ART</text>
  <text x="632" y="164" font-family="Inter, Arial, sans-serif" font-size="22" font-weight="700" fill="#4f46e5">Infographics</text>
  <text x="632" y="226" font-family="Inter, Arial, sans-serif" font-size="54" font-weight="800" fill="#0f172a">Model Comparison</text>
  <text x="632" y="286" font-family="Inter, Arial, sans-serif" font-size="24" fill="#475569">analysis graphic</text>
  <rect x="632" y="350" width="390" height="54" rx="16" fill="#f1f5f9"/>
  <text x="656" y="385" font-family="Inter, Arial, sans-serif" font-size="20" fill="#334155">Prompt clarity: 5/5</text>
  <rect x="632" y="426" width="390" height="54" rx="16" fill="#f1f5f9"/>
  <text x="656" y="461" font-family="Inter, Arial, sans-serif" font-size="20" fill="#334155">Composition control: 5/5</text>
  <rect x="632" y="502" width="390" height="54" rx="16" fill="#f1f5f9"/>
  <text x="656" y="537" font-family="Inter, Arial, sans-serif" font-size="20" fill="#334155">Commercial usability: 4/5</text>
  <text x="632" y="640" font-family="Inter, Arial, sans-serif" font-size="22" font-weight="700" fill="#0f172a">Recipe card + structured JSON</text>
  <text x="632" y="678" font-family="Inter, Arial, sans-serif" font-size="18" fill="#64748b">Copy, adapt, benchmark, and generate.</text>
</svg>
